<svg width="50" height="50" viewBox="0 0 50 50" fill="none" xmlns="http://www.w3.org/2000/svg">
<g clip-path="url(#clip0_1_19)">
<path d="M24.9062 -0.0312494C24.8633 -0.0234369 24.8203 -0.0117182 24.7812 6.44475e-07C24.3164 0.10547 23.9883 0.523439 24 1V4H0V38H24V39.5625L15.2812 48.2812C14.8828 48.6797 14.8828 49.3203 15.2812 49.7188C15.6797 50.1172 16.3203 50.1172 16.7188 49.7188L24 42.4375V45C23.9961 45.3594 24.1836 45.6953 24.4961 45.8789C24.8086 46.0586 25.1914 46.0586 25.5039 45.8789C25.8164 45.6953 26.0039 45.3594 26 45V42.4375L33.2812 49.7188C33.6797 50.1172 34.3203 50.1172 34.7188 49.7188C35.1172 49.3203 35.1172 48.6797 34.7188 48.2812L26 39.5938V38H50V4H26V1C26.0117 0.710939 25.8945 0.433595 25.6875 0.238282C25.4766 0.0390631 25.1914 -0.0585932 24.9062 -0.0312494ZM2 6H48V36H25.1875C25.0547 35.9727 24.9141 35.9727 24.7812 36H2V6ZM41 14C39.8945 14 39 14.8945 39 16C39 16.0859 39.0195 16.168 39.0312 16.25L28.7812 24.1562C28.543 24.0547 28.2773 24 28 24C27.7227 24 27.457 24.0547 27.2188 24.1562H27.1875L19 18.1875C19.0039 18.125 19 18.0625 19 18C19 16.8945 18.1055 16 17 16C15.8945 16 15 16.8945 15 18C15 18.0742 15.0234 18.1445 15.0312 18.2188L9.78125 22.1562C9.54297 22.0547 9.27734 22 9 22C7.89453 22 7 22.8945 7 24C7 25.1055 7.89453 26 9 26C10.1055 26 11 25.1055 11 24C11 23.9258 10.9766 23.8555 10.9688 23.7812L16.2188 19.8438C16.457 19.9453 16.7227 20 17 20C17.2773 20 17.543 19.9453 17.7812 19.8438H17.8125L26 25.8125C25.9961 25.875 26 25.9375 26 26C26 27.1055 26.8945 28 28 28C29.1055 28 30 27.1055 30 26C30 25.9141 29.9805 25.832 29.9688 25.75L40.2188 17.8438H40.25C40.4805 17.9375 40.7344 18 41 18C42.1055 18 43 17.1055 43 16C43 14.8945 42.1055 14 41 14Z" fill="#5FCF6C"/>
</g>
<defs>
<clipPath id="clip0_1_19">
<rect width="50" height="50" fill="white"/>
</clipPath>
</defs>
</svg>
