<svg width="50" height="50" viewBox="0 0 50 50" fill="none" xmlns="http://www.w3.org/2000/svg">
<path d="M12 0C10.9062 0 10 0.90625 10 2V4H4C3.47656 4 2.94531 4.19141 2.57031 4.57031C2.19141 4.94531 2 5.47656 2 6V46C2 46.5234 2.19141 47.0547 2.57031 47.4336C2.94531 47.8086 3.47656 48 4 48H34.0273C35.6953 49.25 37.7578 50 40 50C45.5156 50 50 45.5156 50 40C50 37.7578 49.25 35.6953 48 34.0273V6C48 5.47656 47.8086 4.94531 47.4336 4.57031C47.0547 4.19141 46.5234 4 46 4H40V2C40 0.90625 39.0938 0 38 0H36C34.9062 0 34 0.90625 34 2V4H16V2C16 0.90625 15.0938 0 14 0H12ZM12 2H14V8H12V2ZM36 2H38V8H36V2ZM4 6H10V8C10 9.09375 10.9062 10 12 10H14C15.0938 10 16 9.09375 16 8V6H34V8C34 9.09375 34.9062 10 36 10H38C39.0938 10 40 9.09375 40 8V6H46V13H4V6ZM4 15H46V32.0195C44.3281 30.7578 42.2539 30 40 30C35.5273 30 31.7344 32.9492 30.457 37.0078L30.2344 36.1562L29 31.5195L35 26.6406L27.2812 26.2227L24.5 19L21.7188 26.2227L14 26.6406L20 31.5195L18.0117 39L24.5 34.7969L30.1328 38.4453C30.0547 38.9531 30 39.4688 30 40C30 42.2539 30.7578 44.3281 32.0195 46H4V15ZM24.5 24.5625L25.4141 26.9414L25.8789 28.1523L27.1719 28.2188L29.7188 28.3594L27.7344 29.9688L26.7344 30.7812L27.0664 32.0312L27.7227 34.5L25.5859 33.1133L24.5 32.4102L23.4102 33.1133L21.2773 34.5L21.9336 32.0312L22.2656 30.7812L21.2617 29.9688L19.2812 28.3594L21.8281 28.2188L23.1211 28.1523L23.582 26.9414L24.5 24.5625ZM40 32C44.4102 32 48 35.5898 48 40C48 44.4102 44.4102 48 40 48C35.5898 48 32 44.4102 32 40C32 35.5898 35.5898 32 40 32ZM44.3008 35.4023L38.9023 41.6992L35.5977 39.1992L34.4023 40.8008L39.0977 44.4023L45.8008 36.6992L44.3008 35.4023Z" fill="#5FCF6C"/>
</svg>
