<svg width="50" height="50" viewBox="0 0 50 50" fill="none" xmlns="http://www.w3.org/2000/svg">
<path d="M5 4C4.73479 4.00003 4.48045 4.10539 4.29292 4.29292C4.10539 4.48045 4.00003 4.73479 4 5V17H6V6H16V4H5ZM34 4V6H44V17H46V5C46 4.73479 45.8946 4.48045 45.7071 4.29292C45.5195 4.10539 45.2652 4.00003 45 4H34ZM25.9492 12C22.8995 12 20.6148 13.2255 19.4102 15.0664C18.328 16.7201 18.2603 18.7843 18.9062 20.7168C18.6179 21.1338 18.4119 21.6483 18.4941 22.3438C18.5875 23.1353 18.8 23.7324 19.1465 24.1816C19.2856 24.3621 19.4927 24.365 19.668 24.4824C19.7906 25.1034 19.9508 25.7239 20.2031 26.2363C20.3613 26.5576 20.531 26.8458 20.7148 27.0977C20.7613 27.1613 20.85 27.2095 20.8965 27.2695C20.9012 27.9138 20.906 28.4856 20.8574 29.1504C20.7043 29.5138 20.3864 29.8314 19.752 30.1758C19.0873 30.5366 18.1757 30.8778 17.2285 31.3242C16.2813 31.7706 15.2829 32.3332 14.4746 33.2305C13.6663 34.1277 13.0948 35.3689 13.002 36.9414C12.994 37.0774 13.0139 37.2136 13.0604 37.3416C13.107 37.4697 13.1792 37.5868 13.2727 37.686C13.3661 37.7851 13.4788 37.8641 13.6039 37.9181C13.729 37.9721 13.8638 38 14 38H36C36.1362 38 36.271 37.9721 36.3961 37.9181C36.5212 37.8641 36.6339 37.7851 36.7273 37.686C36.8208 37.5868 36.893 37.4697 36.9396 37.3416C36.9861 37.2136 37.006 37.0774 36.998 36.9414C36.9044 35.3553 36.2919 34.1011 35.4355 33.207C34.5792 32.313 33.5253 31.7586 32.5234 31.3145C31.5216 30.8703 30.555 30.5295 29.8477 30.166C29.1713 29.8184 28.8367 29.4941 28.6895 29.1484C28.6409 28.4832 28.6476 27.9111 28.6523 27.2656C28.6984 27.2049 28.7882 27.1559 28.834 27.0918C29.0148 26.8385 29.1784 26.5476 29.332 26.2266C29.577 25.7146 29.732 25.0982 29.8516 24.4824C30.0258 24.3652 30.2326 24.3632 30.3711 24.1836C30.7173 23.7344 30.9281 23.1349 31.0215 22.3438C31.0812 21.8387 31.0286 21.3751 30.8555 20.9688C30.818 20.8808 30.687 20.8462 30.6367 20.7617C30.8001 20.339 31.0252 19.9517 31.0742 19.4512C31.1541 18.6358 31.1026 17.7276 30.8691 16.834C30.6356 15.9404 30.2165 15.05 29.5 14.3535C28.9312 13.8006 28.1257 13.4724 27.2305 13.3301L26.8457 12.5547C26.7627 12.3879 26.6349 12.2476 26.4765 12.1496C26.3181 12.0516 26.1355 11.9998 25.9492 12ZM25.3867 14.1133L25.6504 14.6445C25.7333 14.8113 25.8612 14.9516 26.0196 15.0496C26.178 15.1476 26.3606 15.1994 26.5469 15.1992C27.2851 15.1992 27.7297 15.4218 28.1055 15.7871C28.4813 16.1524 28.7681 16.7065 28.9336 17.3398C29.0991 17.9732 29.1408 18.6755 29.084 19.2559C29.0271 19.8362 28.8265 20.3015 28.7773 20.3652C28.6938 20.4742 28.6335 20.5991 28.6003 20.7323C28.5671 20.8656 28.5617 21.0042 28.5844 21.1396C28.6071 21.275 28.6575 21.4043 28.7324 21.5194C28.8072 21.6345 28.905 21.7329 29.0195 21.8086C29.0324 21.8518 29.0565 21.9284 29.0352 22.1094C28.971 22.6534 28.8382 22.8904 28.7891 22.9551C28.5814 22.9978 28.3927 23.1054 28.2502 23.2623C28.1077 23.4192 28.0187 23.6173 27.9961 23.8281C27.9474 24.2892 27.7533 24.8952 27.5293 25.3633C27.4173 25.5973 27.2968 25.8013 27.2051 25.9297C27.1134 26.0581 27.0024 26.1032 27.1738 26.0117C27.0139 26.0971 26.8801 26.2243 26.7869 26.3798C26.6937 26.5353 26.6444 26.7132 26.6445 26.8945C26.6445 27.7619 26.6085 28.4939 26.7012 29.5332C26.7094 29.6207 26.7291 29.7067 26.7598 29.7891C27.1487 30.8519 28.0372 31.4846 28.9336 31.9453C29.83 32.406 30.8103 32.7425 31.7129 33.1426C32.6154 33.5427 33.4226 33.9991 33.9902 34.5918C34.3506 34.968 34.5935 35.4428 34.7695 36H15.2207C15.3895 35.4302 15.6215 34.9451 15.9609 34.5684C16.492 33.9789 17.2377 33.5308 18.082 33.1328C18.9264 32.7349 19.8528 32.3973 20.707 31.9336C21.5612 31.4699 22.4085 30.8284 22.7891 29.7871C22.8189 29.7053 22.838 29.6199 22.8457 29.5332C22.9383 28.4939 22.9043 27.7619 22.9043 26.8945C22.9042 26.713 22.8547 26.535 22.7611 26.3794C22.6675 26.2239 22.5334 26.0968 22.373 26.0117C22.5399 26.1005 22.4268 26.0498 22.332 25.9199C22.2372 25.79 22.1132 25.5874 21.998 25.3535C21.7677 24.8857 21.569 24.2807 21.5215 23.8281C21.4989 23.6173 21.4099 23.4192 21.2674 23.2623C21.1249 23.1054 20.9362 22.9978 20.7285 22.9551C20.6796 22.8908 20.5447 22.654 20.4805 22.1094C20.4587 21.9255 20.5042 21.8248 20.5312 21.7852C20.7171 21.6511 20.8513 21.4573 20.9114 21.2362C20.9715 21.015 20.9538 20.78 20.8613 20.5703C20.1734 19.0121 20.2789 17.3905 21.084 16.1602C21.8156 15.0422 23.2484 14.2629 25.3867 14.1133ZM4 35V45C4.00003 45.2652 4.10539 45.5195 4.29292 45.7071C4.48045 45.8946 4.73479 46 5 46H16V44H6V35H4ZM44 35V44H34V46H45C45.2652 46 45.5195 45.8946 45.7071 45.7071C45.8946 45.5195 46 45.2652 46 45V35H44Z" fill="#5FCF6C"/>
</svg>
